<svg xmlns="http://www.w3.org/2000/svg" width="69.594" height="69.58" viewBox="0 0 69.594 69.58">
  <g id="Groupe_1" data-name="Groupe 1" transform="translate(-36.206 -35.214)">
    <path id="Tracé_6" data-name="Tracé 6" d="M36.206,67.422c.177-1.181.317-2.37.539-3.543A34.971,34.971,0,0,1,47.93,44.039a34.455,34.455,0,0,1,5-3.727c-.677-.129-1.219-.215-1.752-.337a2.062,2.062,0,0,1-1.623-2.44,2.111,2.111,0,0,1,2.486-1.566q3.771.66,7.547,1.3a2.088,2.088,0,0,1,1.77,3.024q-1.154,3.113-2.336,6.215a2.053,2.053,0,1,1-3.843-1.432c.174-.487.357-.97.593-1.606-.32.175-.529.272-.72.4-7.615,4.928-12.566,11.778-14.2,20.713C38.932,75.1,42.04,84.217,49.513,91.807a29.576,29.576,0,0,0,15.5,8.287,31.922,31.922,0,0,0,5.725.621,2.051,2.051,0,0,1,.9,3.984c-.037.018-.061.063-.091.1H68.55a15.975,15.975,0,0,0-2.337-.308A35.1,35.1,0,0,1,36.746,76.057c-.218-1.195-.362-2.4-.54-3.607Z" fill="#fff"/>
    <path id="Tracé_7" data-name="Tracé 7" d="M73.442,35.214c1.2.177,2.412.318,3.607.538A34.389,34.389,0,0,1,98.091,48.276a33.54,33.54,0,0,1,7.379,17.016A35.278,35.278,0,0,1,89.678,99.351c-.144.093-.341.135-.412.372.529.1,1.052.193,1.569.312a2.063,2.063,0,0,1,1.6,2.454A2.1,2.1,0,0,1,90,104.05q-3.807-.662-7.613-1.316a2.085,2.085,0,0,1-1.743-3.04c.779-2.1,1.559-4.191,2.368-6.274a2.044,2.044,0,0,1,3.962.471,2.147,2.147,0,0,1-.166,1.06c-.184.508-.375,1.013-.575,1.55.227.063.362-.085.494-.168,7.737-4.858,12.71-11.721,14.4-20.7,1.847-9.8-.723-18.544-7.291-26a29.746,29.746,0,0,0-19.2-10.085,33.891,33.891,0,0,0-3.383-.243,2.114,2.114,0,0,1-2.271-1.627,2.073,2.073,0,0,1,1.373-2.362c.038-.018.063-.061.093-.093Z" fill="#fff"/>
    <path id="Tracé_8" data-name="Tracé 8" d="M93.417,70A22.427,22.427,0,1,1,70.433,47.443,22.573,22.573,0,0,1,93.417,70ZM53.943,63.644c.326-.036.572-.054.815-.09a35.016,35.016,0,0,0,7.014-2.019,25.247,25.247,0,0,1,16.615-.614c2.286.7,4.488,1.661,6.82,2.216a11.906,11.906,0,0,0,2.85.476,18.076,18.076,0,0,0-34.114.031Zm-.727,8.669c-.341-.086-.3.172-.257.482A18.463,18.463,0,0,0,68.182,88.176c.468.077.54-.039.464-.478a18.529,18.529,0,0,0-2.71-7.1A18.256,18.256,0,0,0,53.216,72.313Zm20.37,15.895c.353-.065.689-.116,1.02-.189A18.424,18.424,0,0,0,89.024,72.863c.083-.476.006-.6-.492-.5a18.5,18.5,0,0,0-15.19,15.4C73.308,87.971,73.2,88.25,73.586,88.208Zm-.553-18.176a2.037,2.037,0,1,0-2.062,2.008A2.121,2.121,0,0,0,73.033,70.032Z" fill="#fff"/>
  </g>
</svg>
