<svg xmlns="http://www.w3.org/2000/svg" width="53.294" height="58.139" viewBox="0 0 53.294 58.139">
  <path id="ic_ev_station_24px" d="M54.936,16.663l.032-.032L42.953,4.615,39.529,8.039l6.815,6.815a8.063,8.063,0,0,0,2.875,15.6,8.257,8.257,0,0,0,3.23-.678V53.064a3.23,3.23,0,0,1-6.46,0V38.529a6.479,6.479,0,0,0-6.46-6.46H36.3V9.46A6.479,6.479,0,0,0,29.84,3H10.46A6.479,6.479,0,0,0,4,9.46V61.139H36.3V36.914h4.845v16.15a8.075,8.075,0,1,0,16.15,0V22.38A8.081,8.081,0,0,0,54.936,16.663ZM49.219,25.61a3.23,3.23,0,1,1,3.23-3.23A3.239,3.239,0,0,1,49.219,25.61Zm-32.3,25.84V36.914H10.46L23.38,12.69V28.84h6.46Z" transform="translate(-4 -3)" fill="#fff"/>
</svg>
